<?xml version="1.0" encoding="UTF-8" standalone="no"?>
<svg
   xmlns:dc="http://purl.org/dc/elements/1.1/"
   xmlns:cc="http://creativecommons.org/ns#"
   xmlns:rdf="http://www.w3.org/1999/02/22-rdf-syntax-ns#"
   xmlns:svg="http://www.w3.org/2000/svg"
   xmlns="http://www.w3.org/2000/svg"
   xmlns:sodipodi="http://sodipodi.sourceforge.net/DTD/sodipodi-0.dtd"
   xmlns:inkscape="http://www.inkscape.org/namespaces/inkscape"
   width="877.25928"
   height="209.99997"
   viewBox="0 0 232.10818 55.562492"
   version="1.1"
   id="svg8"
   inkscape:version="1.0.2-2 (e86c870879, 2021-01-15)"
   sodipodi:docname="logo_full.svg"
   inkscape:export-filename="C:\Users\matts\Documents\McJAM\logo_full.png"
   inkscape:export-xdpi="95.971619"
   inkscape:export-ydpi="95.971619">
  <defs
     id="defs2" />
  <sodipodi:namedview
     id="base"
     pagecolor="#ffffff"
     bordercolor="#666666"
     borderopacity="1.0"
     inkscape:pageopacity="0.0"
     inkscape:pageshadow="2"
     inkscape:zoom="0.70710678"
     inkscape:cx="369.81689"
     inkscape:cy="257.64952"
     inkscape:document-units="px"
     inkscape:current-layer="layer1"
     inkscape:document-rotation="0"
     showgrid="false"
     inkscape:object-paths="true"
     inkscape:window-width="1920"
     inkscape:window-height="1001"
     inkscape:window-x="-9"
     inkscape:window-y="-9"
     inkscape:window-maximized="1"
     inkscape:snap-bbox="true"
     inkscape:bbox-paths="true"
     inkscape:bbox-nodes="true"
     inkscape:snap-global="true"
     fit-margin-top="0"
     fit-margin-left="0"
     fit-margin-right="0"
     fit-margin-bottom="0"
     units="px">
    <inkscape:grid
       type="xygrid"
       id="grid1246"
       originx="-11.945905"
       originy="-100.21858" />
  </sodipodi:namedview>
  <metadata
     id="metadata5">
    <rdf:RDF>
      <cc:Work
         rdf:about="">
        <dc:format>image/svg+xml</dc:format>
        <dc:type
           rdf:resource="http://purl.org/dc/dcmitype/StillImage" />
        <dc:title></dc:title>
      </cc:Work>
    </rdf:RDF>
  </metadata>
  <g
     inkscape:label="Layer 1"
     inkscape:groupmode="layer"
     id="layer1"
     transform="translate(-11.945905,-100.21857)">
    <g
       id="g916">
      <g
         aria-label="McJ  m"
         id="text1507"
         style="font-style:normal;font-variant:normal;font-weight:normal;font-stretch:normal;font-size:63.61px;font-family:Galindo;-inkscape-font-specification:Galindo;text-align:center;text-anchor:middle;fill:#ffffff;fill-opacity:1;stroke:#000000;stroke-width:0;stroke-linecap:round;stroke-linejoin:round;stroke-miterlimit:4;stroke-dasharray:none;stroke-opacity:1">
        <path
           d="m 57.541355,151.80712 q -0.124238,-0.71437 -0.341655,-2.60901 -0.217417,-1.89463 -0.496953,-4.47258 -0.248477,-2.57794 -0.559073,-5.65284 -0.310595,-3.07489 -0.590132,-6.18085 -0.71437,-7.26794 -1.490859,-16.02674 l -6.802046,34.10341 -13.293496,0.83861 q -1.677217,-6.89523 -3.168076,-13.35562 -0.652251,-2.73324 -1.335562,-5.65284 -0.652251,-2.95066 -1.304502,-5.74602 -0.621191,-2.82642 -1.180264,-5.37331 -0.528012,-2.54688 -0.900727,-4.53469 -0.124238,1.67721 -0.341655,4.0688 -0.186358,2.36053 -0.434834,5.12483 -0.217417,2.73324 -0.496954,5.6839 -0.248476,2.95066 -0.528012,5.77708 -0.621192,6.64675 -1.335562,14.00787 H 11.945905 q 1.832515,-11.5231 3.168076,-22.98409 1.366622,-11.46098 2.049932,-23.26361 l 18.07667,-0.96285 7.361118,33.73069 q 1.335562,-6.36721 2.515826,-12.48594 0.496953,-2.60901 0.993906,-5.43543 0.528013,-2.82642 0.962847,-5.59072 0.434834,-2.79536 0.807548,-5.40437 0.372715,-2.609 0.590132,-4.81423 h 17.175943 q 0.621191,11.42992 1.770395,22.85984 1.149204,11.42993 2.9196,23.13938 z"
           style="font-style:normal;font-variant:normal;font-weight:normal;font-stretch:normal;font-size:63.61px;font-family:Galindo;-inkscape-font-specification:Galindo;fill:#000000;fill-opacity:1;stroke-width:0;stroke-miterlimit:4;stroke-dasharray:none"
           id="path882" />
        <path
           d="m 96.055224,130.09648 q 0.155298,-0.74543 0.217417,-1.49086 0.06212,-0.77649 0.06212,-1.55298 0,-0.71437 -0.06212,-1.39768 -0.06212,-0.68331 -0.217417,-1.39768 -1.335562,-0.24848 -2.702183,-0.34166 -1.366621,-0.0932 -2.826421,-0.0932 -1.42874,0 -2.88854,0.0932 -1.4598,0.0932 -2.950659,0.34166 -0.155298,1.67721 -0.248477,3.29231 -0.06212,1.6151 -0.06212,3.26126 0,3.78926 0.372715,7.51641 0.403774,3.69609 1.087085,7.42324 1.397681,0.1553 2.671123,0.21742 1.304502,0.0311 2.671123,0.0311 1.335562,0 2.640064,-0.0311 1.304502,-0.0621 2.702182,-0.21742 0.06212,-0.65225 0.09318,-1.27344 0.03106,-0.62119 0.03106,-1.21133 0,-0.55907 -0.03106,-1.11814 -0.03106,-0.55907 -0.09318,-1.08708 l 11.709464,0.24847 q -0.86967,2.95066 -2.51583,5.06271 -1.6151,2.11205 -3.85139,3.47867 -2.205227,1.33557 -4.938469,1.95676 -2.733243,0.62119 -5.746021,0.62119 -3.696089,0 -6.957344,-0.99391 -3.230195,-0.9939 -5.652842,-3.19913 -2.391586,-2.23629 -3.789267,-5.80814 -1.366621,-3.57185 -1.366621,-8.7588 0,-4.19304 1.4598,-7.20582 1.459799,-3.01278 3.882446,-4.96953 2.453706,-1.95676 5.652842,-2.85748 3.230195,-0.93179 6.770986,-0.93179 3.137017,0 5.963438,0.74543 2.826421,0.71437 5.093772,2.23629 2.29841,1.49086 3.9135,3.85138 1.6151,2.32947 2.32947,5.55967 z"
           style="font-style:normal;font-variant:normal;font-weight:normal;font-stretch:normal;font-size:63.61px;font-family:Galindo;-inkscape-font-specification:Galindo;fill:#000000;fill-opacity:1;stroke-width:0;stroke-miterlimit:4;stroke-dasharray:none"
           id="path884" />
        <path
           d="m 149.38451,129.22681 q -0.0621,4.65893 -1.33556,8.82092 -1.24239,4.13092 -3.78927,7.26794 -2.54689,3.13701 -6.39827,4.96953 -3.85139,1.83251 -9.10046,1.83251 -4.56575,0 -8.01337,-1.1492 -3.41655,-1.11815 -5.6839,-3.47867 -2.26735,-2.39159 -3.41655,-6.08768 -1.11815,-3.69609 -1.11815,-8.82092 0,-1.1492 0.0311,-2.32947 0.0621,-1.18026 0.21742,-2.36052 1.7704,0.0932 3.16808,0.18635 1.39768,0.0621 2.73324,0.0621 1.36662,0 2.79536,-0.0932 1.42874,-0.0932 3.38549,-0.27954 -0.0621,1.42874 -0.0932,2.9196 -0.0621,1.3045 -0.0932,2.9196 0,1.58404 0,3.16807 0,1.86358 0.0311,3.47868 0.0621,1.61509 0.21741,2.39158 1.27345,0 2.9196,-0.0311 1.67722,-0.0311 3.44762,-0.0932 1.77039,-0.0932 3.50973,-0.18636 1.73933,-0.12424 3.16807,-0.27954 0.55908,-3.63397 0.77649,-7.92019 0.24848,-4.28622 0.24848,-8.78986 0,-3.50973 -0.0932,-6.95734 -0.0932,-3.44761 -0.24848,-6.64675 -0.90072,0 -1.98781,0.0621 -1.08708,0.0311 -2.23629,0.12424 -1.11814,0.0932 -2.23629,0.24847 -1.08708,0.1553 -2.04993,0.37272 l -0.55907,-8.57244 q 3.57185,0.18636 7.11264,0.18636 3.16808,0 6.39827,-0.12424 3.2302,-0.1553 6.83311,-0.4659 0.43483,5.15589 0.71437,9.78377 0.27953,4.59681 0.43483,8.16867 0.18636,4.16198 0.3106,7.70277 z"
           style="font-style:normal;font-variant:normal;font-weight:normal;font-stretch:normal;font-size:63.61px;font-family:Galindo;-inkscape-font-specification:Galindo;fill:#000000;fill-opacity:1;stroke-width:0;stroke-miterlimit:4;stroke-dasharray:none"
           id="path886" />
        <path
           d="m 225.10774,135.31448 q 0,3.94457 -0.4659,8.01337 -0.46589,4.06881 -1.42874,8.16867 h -10.80873 q 0.37272,-4.3794 0.59014,-8.69668 0.21741,-4.31728 0.21741,-8.69668 0,-1.49086 0,-2.95066 0,-1.4598 -0.0621,-2.88854 -1.39768,-0.1553 -2.7643,-0.18636 -1.33556,-0.0621 -2.7643,-0.0621 -0.80755,0 -1.64616,0.0311 -0.80755,0.031 -1.67721,0.031 -0.0932,2.20523 -0.12424,4.13093 0,1.89463 0,3.82032 0,1.58404 0.0311,3.2302 0.0311,1.6151 0.0932,3.47867 0.0932,1.86358 0.21741,4.03775 0.12424,2.14311 0.3106,4.72105 H 194.3899 q 0,-3.72715 -0.0311,-6.58463 -0.0311,-2.85748 -0.0932,-5.24907 -0.0621,-2.42264 -0.18635,-4.59681 -0.0932,-2.20523 -0.24848,-4.59682 -0.1553,-2.42264 -0.34165,-5.24907 -0.18636,-2.85748 -0.43484,-6.55357 l 11.77158,-0.71437 -0.24848,4.59682 q 1.55298,-0.74543 3.04384,-1.1492 1.49086,-0.40378 2.67112,-0.59013 1.36662,-0.21742 2.60901,-0.24848 2.39158,0 4.25516,0.68331 1.86357,0.65225 3.26125,1.80145 1.80146,-1.55297 3.78927,-2.36052 2.01887,-0.83861 3.72715,-1.24239 1.98781,-0.46589 3.91351,-0.52801 2.2984,0 4.0688,0.62119 1.80145,0.62119 3.16808,1.73934 1.36662,1.08708 2.2984,2.609 0.96285,1.49086 1.55298,3.2302 0.59013,1.70827 0.83861,3.60291 0.27954,1.89463 0.27954,3.78927 0,4.13092 -0.4659,8.38608 -0.43483,4.25516 -1.42874,8.6035 h -10.80873 q 0.37272,-4.62788 0.59013,-9.16257 0.21742,-4.56576 0.21742,-9.16258 0,-1.55297 0,-3.07489 0,-1.55298 -0.0621,-3.10596 -1.39768,-0.1553 -2.7643,-0.18636 -1.36662,-0.0621 -2.82642,-0.0621 -0.80755,0 -1.58404,0.0311 -0.77649,0.0311 -1.58404,0.0311 0.96285,1.9257 1.36662,4.13093 0.40378,2.17417 0.40378,4.37939 z"
           style="font-style:normal;font-variant:normal;font-weight:normal;font-stretch:normal;font-size:63.61px;font-family:Galindo;-inkscape-font-specification:Galindo;fill:#000000;fill-opacity:1;stroke-width:0;stroke-miterlimit:4;stroke-dasharray:none"
           id="path888" />
      </g>
      <g
         id="g899">
        <g
           id="g1489"
           transform="translate(-518.03988,-49.271011)">
          <rect
             style="fill:#ffbe6f;fill-opacity:1;stroke:#000000;stroke-width:2.64583;stroke-linecap:round;stroke-linejoin:round;stroke-miterlimit:4;stroke-dasharray:none;stroke-opacity:1"
             id="rect1475"
             width="34.395832"
             height="10.583333"
             x="672.04163"
             y="150.8125"
             rx="5.2916665"
             ry="5.2916665" />
          <g
             id="g1487">
            <rect
               style="fill:#000000;fill-opacity:1;stroke:#000000;stroke-width:0;stroke-linecap:round;stroke-linejoin:round;stroke-miterlimit:4;stroke-dasharray:none;stroke-opacity:1"
               id="rect1477"
               width="2.6458333"
               height="6.614583"
               x="687.91663"
               y="152.79688"
               rx="1.3229166"
               ry="1.3229166" />
            <rect
               style="fill:#000000;fill-opacity:1;stroke:#000000;stroke-width:0;stroke-linecap:round;stroke-linejoin:round;stroke-miterlimit:4;stroke-dasharray:none;stroke-opacity:1"
               id="rect1479"
               width="2.6458333"
               height="6.614583"
               x="693.20831"
               y="152.79688"
               rx="1.3229166"
               ry="1.3229166" />
            <rect
               style="fill:#000000;fill-opacity:1;stroke:#000000;stroke-width:0;stroke-linecap:round;stroke-linejoin:round;stroke-miterlimit:4;stroke-dasharray:none;stroke-opacity:1"
               id="rect1481"
               width="2.6458333"
               height="6.614583"
               x="682.625"
               y="152.79688"
               rx="1.3229166"
               ry="1.3229166" />
            <rect
               style="fill:#000000;fill-opacity:1;stroke:#000000;stroke-width:0;stroke-linecap:round;stroke-linejoin:round;stroke-miterlimit:4;stroke-dasharray:none;stroke-opacity:1"
               id="rect1483"
               width="2.6458333"
               height="6.614583"
               x="698.5"
               y="152.79688"
               rx="1.3229166"
               ry="1.3229166" />
            <rect
               style="fill:#000000;fill-opacity:1;stroke:#000000;stroke-width:0;stroke-linecap:round;stroke-linejoin:round;stroke-miterlimit:4;stroke-dasharray:none;stroke-opacity:1"
               id="rect1485"
               width="2.6458333"
               height="6.614583"
               x="677.33331"
               y="152.79688"
               rx="1.3229166"
               ry="1.3229166" />
          </g>
        </g>
        <rect
           style="fill:#f3186f;fill-opacity:1;stroke:#000000;stroke-width:2.64583;stroke-linecap:round;stroke-linejoin:round;stroke-miterlimit:4;stroke-dasharray:none;stroke-opacity:1"
           id="rect1491"
           width="34.395832"
           height="42.333332"
           x="154.00174"
           y="112.12482"
           rx="5.2916665"
           ry="5.2916665" />
        <path
           id="path1493"
           style="fill:#ffbe6f;fill-opacity:1;stroke:#000000;stroke-width:2.64583;stroke-linecap:round;stroke-linejoin:round;stroke-miterlimit:4;stroke-dasharray:none;stroke-opacity:1"
           d="m 159.29344,113.44774 c -2.93158,0 -5.29166,2.36008 -5.29166,5.29166 0,2.93159 2.36008,5.29167 5.29166,5.29167 h 5.29167 a 6.614583,6.614583 0 0 1 6.61458,-6.61458 6.614583,6.614583 0 0 1 6.61459,6.61458 h 5.29166 c 2.93159,0 5.29167,-2.36008 5.29167,-5.29167 0,-2.93158 -2.36008,-5.29166 -5.29167,-5.29166 z m 0,30.42708 c -2.93158,0 -5.29166,2.36009 -5.29166,5.29167 0,2.93158 2.36008,5.29166 5.29166,5.29166 h 23.8125 c 2.93159,0 5.29167,-2.36008 5.29167,-5.29166 0,-2.93158 -2.36008,-5.29167 -5.29167,-5.29167 h -5.29166 a 6.614583,6.614583 0 0 1 -6.61459,6.61458 6.614583,6.614583 0 0 1 -6.61458,-6.61458 z" />
        <text
           xml:space="preserve"
           style="font-style:normal;font-variant:normal;font-weight:normal;font-stretch:normal;font-size:16.9333px;font-family:Roboto;-inkscape-font-specification:Roboto;text-align:center;text-anchor:middle;fill:#ff0000;fill-opacity:1;stroke:#000000;stroke-width:1.32751;stroke-linecap:round;stroke-linejoin:round;stroke-miterlimit:4;stroke-dasharray:none;stroke-opacity:1"
           x="171.241"
           y="138.79398"
           id="text1499"><tspan
             sodipodi:role="line"
             id="tspan1497"
             x="171.241"
             y="138.79398"
             style="font-size:16.9333px;fill:#000000;fill-opacity:1;stroke-width:1.32751">&lt;/&gt;</tspan></text>
      </g>
    </g>
  </g>
</svg>
